<?xml version="1.0" encoding="UTF-8"?>
<svg id="Layer_1" data-name="Layer 1" xmlns="http://www.w3.org/2000/svg" version="1.1" viewBox="0 0 668.73 282.45">
  <defs>
    <style>
      .cls-1 {
        fill: #0D3864;
        stroke-width: 0px;
      }
    </style>
  </defs>
  <path class="cls-1" d="M95.37,115.77h24.8c.62,0,1.13.5,1.13,1.13v70.33c0,.62.5,1.13,1.13,1.13h21.34c.62,0,1.13-.5,1.13-1.13v-70.33c0-.62.5-1.13,1.13-1.13h24.8c.62,0,1.13-.5,1.13-1.13v-19.42c0-.62-.5-1.13-1.13-1.13h-75.45c-.62,0-1.13.5-1.13,1.13v19.42c0,.62.5,1.13,1.13,1.13Z"/>
  <rect class="cls-1" x="184.74" y="94.1" width="69.37" height="21.67" rx="1.13" ry="1.13"/>
  <path class="cls-1" d="M208.34,159.29v-9.31c0-.62.5-1.13,1.13-1.13h35.96c.62,0,1.13-.5,1.13-1.13v-19.42c0-.62-.5-1.13-1.13-1.13h-59.55c-.62,0-1.13.5-1.13,1.13v43.64c0,.31.13.61.36.83l16.5,15.27c.21.19.48.3.76.3h50.62c.62,0,1.13-.5,1.13-1.13v-19.42c0-.62-.5-1.13-1.13-1.13h-37.26c-.3,0-.58-.12-.8-.33l-6.26-6.26c-.21-.21-.33-.5-.33-.8Z"/>
  <rect class="cls-1" x="270.18" y="94.1" width="23.59" height="94.25" rx="1.13" ry="1.13"/>
  <rect class="cls-1" x="369.32" y="94.1" width="23.59" height="94.25" rx="1.13" ry="1.13"/>
  <path class="cls-1" d="M408.17,115.77h24.81c.62,0,1.13.5,1.13,1.13v70.33c0,.62.5,1.13,1.13,1.13h21.34c.62,0,1.13-.5,1.13-1.13v-70.33c0-.62.5-1.13,1.13-1.13h24.81c.62,0,1.13-.5,1.13-1.13v-19.42c0-.62-.5-1.13-1.13-1.13h-75.45c-.62,0-1.13.5-1.13,1.13v19.42c0,.62.5,1.13,1.13,1.13Z"/>
  <path class="cls-1" d="M524.22,126.04v-2.75c0-.29.12-.58.32-.79l6.27-6.39c.21-.22.5-.34.8-.34h39.82c.62,0,1.13-.5,1.13-1.13v-19.42c0-.62-.5-1.13-1.13-1.13h-53.18c-.28,0-.56.11-.76.3l-16.5,15.27c-.23.21-.36.51-.36.83v32.22c0,.52.36.97.87,1.1l48.53,11.51c.51.12.87.57.87,1.1v2.87c0,.3-.12.59-.34.8l-6.39,6.27c-.21.21-.49.32-.79.32h-43.55c-.62,0-1.13.5-1.13,1.13v19.42c0,.62.5,1.13,1.13,1.13h57.03c.28,0,.56-.11.76-.3l16.5-15.27c.23-.21.36-.51.36-.83v-32.21c0-.52-.36-.97-.87-1.1l-48.53-11.52c-.51-.12-.87-.57-.87-1.1Z"/>
  <path class="cls-1" d="M328.38,141.94l22.12-16.34c.29-.21.46-.55.46-.91v-29.47c0-.62-.5-1.13-1.13-1.13h-21.22c-.62,0-1.13.5-1.13,1.13v19.23c0,.35-.16.68-.44.89l-26.05,20.09c-.28.21-.44.54-.44.89v8.15c0,.25.08.49.24.69l33.62,42.69c.21.27.54.44.89.44h25.07c.94,0,1.47-1.09.88-1.82l-33.1-41.23c-.16-.2-.24-.44-.24-.7v-1.7c0-.36.17-.69.46-.91Z"/>
</svg>